<svg id="Grupo_548" data-name="Grupo 548" xmlns="http://www.w3.org/2000/svg" xmlns:xlink="http://www.w3.org/1999/xlink" width="16.456" height="15" viewBox="0 0 16.456 15">
  <defs>
    <clipPath id="clip-path">
      <rect id="Rectángulo_454" data-name="Rectángulo 454" width="16.456" height="15" fill="#48494a"/>
    </clipPath>
  </defs>
  <g id="Grupo_547" data-name="Grupo 547" clip-path="url(#clip-path)">
    <path id="Trazado_57" data-name="Trazado 57" d="M8.231,1.132a5.034,5.034,0,0,1,8.157,3.137,4.947,4.947,0,0,1-1.426,4.41c-2,2.031-4.028,4.038-6.044,6.055a.8.8,0,0,1-.86.222,1.761,1.761,0,0,1-.746-.435Q4.428,11.634,1.546,8.746A5.115,5.115,0,0,1,0,4.882,5.042,5.042,0,0,1,8.122,1.053c.032.024.064.046.109.079m-.01,12.727c.049-.047.079-.074.107-.1q2.89-2.88,5.778-5.761a4.01,4.01,0,0,0,1.187-3.611,3.934,3.934,0,0,0-4.675-3.21,3.994,3.994,0,0,0-1.816.91.781.781,0,0,1-.841.179,1.615,1.615,0,0,1-.411-.269,3.984,3.984,0,0,0-5.135.088A4.034,4.034,0,0,0,2.262,7.9q2.844,2.877,5.708,5.735c.076.076.161.141.252.22" transform="translate(0 0)" fill="#48494a"/>
  </g>
</svg>
