<svg id="Grupo_470" data-name="Grupo 470" xmlns="http://www.w3.org/2000/svg" xmlns:xlink="http://www.w3.org/1999/xlink" width="179" height="46.993" viewBox="0 0 179 46.993">
  <defs>
    <clipPath id="clip-path">
      <rect id="Rectángulo_426" data-name="Rectángulo 426" width="179" height="46.993" fill="none"/>
    </clipPath>
  </defs>
  <path id="Trazado_1" data-name="Trazado 1" d="M439.061,83.771h-4.383V75.243l-2.529,4.4h-2.794l-2.529-4.4v8.542h-4.383V65.946h4.3l4,7.866,4.013-7.866h4.3Z" transform="translate(-366.496 -57.213)" fill="#48494a"/>
  <g id="Grupo_469" data-name="Grupo 469">
    <g id="Grupo_468" data-name="Grupo 468" clip-path="url(#clip-path)">
      <path id="Trazado_2" data-name="Trazado 2" d="M590.515,73.9v.6c0,.993-.04,1.854-.106,2.569a7.937,7.937,0,0,1-.49,2.079,5.53,5.53,0,0,1-1.192,1.814,6.781,6.781,0,0,1-2.185,1.5,7.041,7.041,0,0,1-2.808.5,8.052,8.052,0,0,1-1.96-.225,6.011,6.011,0,0,1-1.616-.662,7.188,7.188,0,0,1-1.4-1.112,5.288,5.288,0,0,1-1.5-2.662,18.707,18.707,0,0,1-.318-3.788V73.322a18.849,18.849,0,0,1,.318-3.8,5.326,5.326,0,0,1,1.5-2.675,6.81,6.81,0,0,1,2.2-1.51,8.175,8.175,0,0,1,5.575,0,6.781,6.781,0,0,1,2.185,1.5,5.026,5.026,0,0,1,1.192,1.814,8.056,8.056,0,0,1,.49,2.079c.066.715.106,1.576.106,2.569V73.9Zm-4.383,0a19.782,19.782,0,0,0-.159-3.112,3,3,0,0,0-.49-1.271,1.73,1.73,0,0,0-.715-.556,2.47,2.47,0,0,0-1.046-.225,2.344,2.344,0,0,0-1.02.212,1.972,1.972,0,0,0-.728.569,2.412,2.412,0,0,0-.358.689,6.048,6.048,0,0,0-.212,1.258q-.079.854-.079,2.424c0,1.046.026,1.854.079,2.41a6.048,6.048,0,0,0,.212,1.258,2.412,2.412,0,0,0,.358.689,2.057,2.057,0,0,0,1.748.808,2.082,2.082,0,0,0,1.761-.808,3.113,3.113,0,0,0,.49-1.271,18.949,18.949,0,0,0,.159-3.072" transform="translate(-500.536 -56.258)" fill="#48494a"/>
      <path id="Trazado_3" data-name="Trazado 3" d="M722.359,83.771h-3.827l-5.708-8.966v8.966h-4.383V65.946h3.827l5.708,8.966V65.946h4.383Z" transform="translate(-614.621 -57.213)" fill="#48494a"/>
      <path id="Trazado_4" data-name="Trazado 4" d="M849.6,83.771h-4.569l-.834-2.649h-5.5l-.874,2.649h-4.582l6.476-17.825h3.39Zm-6.555-6.3-1.51-4.754-1.6,4.754Z" transform="translate(-722.894 -57.213)" fill="#48494a"/>
      <path id="Trazado_5" data-name="Trazado 5" d="M985.714,75.117a13.086,13.086,0,0,1-.4,3.562A5.522,5.522,0,0,1,983.9,81.05a6.555,6.555,0,0,1-1.549,1.192,6.017,6.017,0,0,1-1.722.636,9.741,9.741,0,0,1-1.92.185,6.689,6.689,0,0,1-4.953-2,5.287,5.287,0,0,1-1.5-2.662,18.707,18.707,0,0,1-.318-3.788V73.422a18.849,18.849,0,0,1,.318-3.8,5.325,5.325,0,0,1,1.5-2.675,6.9,6.9,0,0,1,2.185-1.51,7.079,7.079,0,0,1,2.768-.49,6.715,6.715,0,0,1,4.9,1.7,7.12,7.12,0,0,1,2.066,4.211h-4.41a2.776,2.776,0,0,0-.861-1.523,2.637,2.637,0,0,0-1.7-.477,2.04,2.04,0,0,0-1.722.781,2.411,2.411,0,0,0-.358.689,6.048,6.048,0,0,0-.212,1.258q-.079.854-.079,2.424c0,1.046.026,1.867.079,2.437a6.209,6.209,0,0,0,.212,1.271,2.494,2.494,0,0,0,.358.7,2.058,2.058,0,0,0,1.722.755,2.409,2.409,0,0,0,2.635-2.609v-.252h-2.635V72.654H985.7v2.463Z" transform="translate(-843.225 -56.345)" fill="#48494a"/>
      <path id="Trazado_6" data-name="Trazado 6" d="M1115.975,77.521a6.339,6.339,0,0,1-.53,2.609,5.842,5.842,0,0,1-1.47,2.053,6.326,6.326,0,0,1-2.172,1.3,7.79,7.79,0,0,1-2.622.45,7.292,7.292,0,0,1-3.377-.795,6.214,6.214,0,0,1-2.463-2.251,6.312,6.312,0,0,1-.9-3.351V65.946h4.383V77.415a2.732,2.732,0,0,0,.636,1.92,2.217,2.217,0,0,0,1.735.689,2.563,2.563,0,0,0,1.258-.3,2.035,2.035,0,0,0,.848-.887,3.09,3.09,0,0,0,.291-1.4V65.946h4.383Z" transform="translate(-956.443 -57.213)" fill="#48494a"/>
      <path id="Trazado_7" data-name="Trazado 7" d="M1238.4,83.771h-4.569l-.834-2.649h-5.5l-.874,2.649h-4.582l6.476-17.825h3.39Zm-6.555-6.3-1.51-4.754-1.6,4.754Z" transform="translate(-1060.204 -57.213)" fill="#48494a"/>
      <path id="Trazado_8" data-name="Trazado 8" d="M427.054,259.4a2.968,2.968,0,0,1-1.51-.371A2.762,2.762,0,0,1,424.512,258a2.968,2.968,0,0,1-.371-1.51,3.155,3.155,0,0,1,.358-1.523,2.627,2.627,0,0,1,.98-1.033,2.685,2.685,0,0,1,1.43-.384,2.65,2.65,0,0,1,1.391.358,2.521,2.521,0,0,1,.927,1.007,3.068,3.068,0,0,1,.331,1.457.348.348,0,0,1-.106.265.379.379,0,0,1-.278.106H424.7v-.675h4.556l-.45.331a2.475,2.475,0,0,0-.225-1.1,1.788,1.788,0,0,0-1.682-1.033,2.008,2.008,0,0,0-1.059.278,1.914,1.914,0,0,0-.7.781,2.618,2.618,0,0,0-.252,1.139,2.3,2.3,0,0,0,.278,1.139,1.981,1.981,0,0,0,.768.781,2.2,2.2,0,0,0,1.112.278,2.288,2.288,0,0,0,.768-.132,1.879,1.879,0,0,0,.609-.331.471.471,0,0,1,.265-.106.407.407,0,0,1,.252.079.413.413,0,0,1,.146.278.326.326,0,0,1-.119.252,2.976,2.976,0,0,1-.887.49,2.607,2.607,0,0,1-1.02.212" transform="translate(-367.971 -219.968)" fill="#48494a"/>
      <path id="Trazado_9" data-name="Trazado 9" d="M475.652,259.173a.447.447,0,0,1-.3-.106.362.362,0,0,1-.106-.291v-4.953a.447.447,0,0,1,.106-.3.374.374,0,0,1,.3-.106.436.436,0,0,1,.291.106.374.374,0,0,1,.106.3v4.953a.436.436,0,0,1-.106.291.362.362,0,0,1-.291.106m4.529,0a.389.389,0,0,1-.291-.119.381.381,0,0,1-.119-.278v-2.741a2.011,2.011,0,0,0-.252-1.073,1.643,1.643,0,0,0-.675-.636,2.287,2.287,0,0,0-1.894-.013,1.687,1.687,0,0,0-.662.543,1.343,1.343,0,0,0-.238.795h-.583a2.245,2.245,0,0,1,.358-1.179,2.445,2.445,0,0,1,.9-.821,2.585,2.585,0,0,1,1.245-.3,2.926,2.926,0,0,1,1.338.3,2.281,2.281,0,0,1,.927.914,2.927,2.927,0,0,1,.344,1.457v2.741a.342.342,0,0,1-.119.278.3.3,0,0,1-.278.132" transform="translate(-412.304 -219.795)" fill="#48494a"/>
      <path id="Trazado_10" data-name="Trazado 10" d="M529.615,259.313a2.911,2.911,0,0,1-1.483-.384,2.763,2.763,0,0,1-1.02-1.046,2.952,2.952,0,0,1-.371-1.5,3.175,3.175,0,0,1,.358-1.51,2.761,2.761,0,0,1,.98-1.046,2.869,2.869,0,0,1,2.609-.132,2.866,2.866,0,0,1,.953.755.261.261,0,0,1,.079.265.508.508,0,0,1-.172.252.308.308,0,0,1-.265.053.451.451,0,0,1-.252-.146,1.949,1.949,0,0,0-1.536-.689,1.829,1.829,0,0,0-1.722,1.059,2.619,2.619,0,0,0-.252,1.139,2.394,2.394,0,0,0,.265,1.126,1.916,1.916,0,0,0,.742.781,2.1,2.1,0,0,0,1.086.278,2.665,2.665,0,0,0,.755-.106,1.857,1.857,0,0,0,.609-.344.533.533,0,0,1,.265-.119.358.358,0,0,1,.252.079.443.443,0,0,1,.146.265.265.265,0,0,1-.106.252,2.66,2.66,0,0,1-1.92.715" transform="translate(-456.984 -219.882)" fill="#48494a"/>
      <path id="Trazado_11" data-name="Trazado 11" d="M578.25,259.673a2.926,2.926,0,0,1-1.338-.3,2.281,2.281,0,0,1-.927-.914,2.926,2.926,0,0,1-.344-1.457v-2.741a.342.342,0,0,1,.119-.278.416.416,0,0,1,.583,0,.381.381,0,0,1,.119.278V257a2.011,2.011,0,0,0,.252,1.073,1.567,1.567,0,0,0,.675.636,2.287,2.287,0,0,0,1.894.013,1.686,1.686,0,0,0,.662-.543,1.342,1.342,0,0,0,.238-.795h.583a2.512,2.512,0,0,1-.358,1.179,2.307,2.307,0,0,1-.887.821,2.8,2.8,0,0,1-1.271.291m2.318-.066a.436.436,0,0,1-.291-.106.374.374,0,0,1-.106-.3v-4.953a.436.436,0,0,1,.106-.291.362.362,0,0,1,.291-.106.436.436,0,0,1,.291.106.39.39,0,0,1,.119.291V259.2a.4.4,0,0,1-.119.3.38.38,0,0,1-.291.106" transform="translate(-499.408 -220.229)" fill="#48494a"/>
      <path id="Trazado_12" data-name="Trazado 12" d="M630.854,259.4a2.968,2.968,0,0,1-1.51-.371A2.763,2.763,0,0,1,628.312,258a2.968,2.968,0,0,1-.371-1.51,3.155,3.155,0,0,1,.358-1.523,2.637,2.637,0,0,1,2.4-1.417,2.651,2.651,0,0,1,1.391.358,2.522,2.522,0,0,1,.927,1.007,3.068,3.068,0,0,1,.331,1.457.348.348,0,0,1-.106.265.379.379,0,0,1-.278.106h-4.476v-.675h4.556l-.45.331a2.475,2.475,0,0,0-.225-1.1,1.788,1.788,0,0,0-1.682-1.033,2.008,2.008,0,0,0-1.059.278,1.914,1.914,0,0,0-.7.781,2.619,2.619,0,0,0-.252,1.139,2.3,2.3,0,0,0,.278,1.139,1.981,1.981,0,0,0,.768.781,2.2,2.2,0,0,0,1.112.278,2.288,2.288,0,0,0,.768-.132,1.958,1.958,0,0,0,.622-.331.47.47,0,0,1,.265-.106.407.407,0,0,1,.252.079.413.413,0,0,1,.146.278.326.326,0,0,1-.119.252,2.977,2.977,0,0,1-.887.49,2.608,2.608,0,0,1-1.02.212" transform="translate(-544.782 -219.968)" fill="#48494a"/>
      <path id="Trazado_13" data-name="Trazado 13" d="M679.451,259.173a.447.447,0,0,1-.3-.106.362.362,0,0,1-.106-.291v-4.953a.447.447,0,0,1,.106-.3.374.374,0,0,1,.3-.106.436.436,0,0,1,.291.106.374.374,0,0,1,.106.3v4.953a.436.436,0,0,1-.106.291.362.362,0,0,1-.291.106m4.516,0a.389.389,0,0,1-.291-.119.381.381,0,0,1-.119-.278v-2.741a2.011,2.011,0,0,0-.252-1.073,1.644,1.644,0,0,0-.675-.636,2.287,2.287,0,0,0-1.894-.013,1.686,1.686,0,0,0-.662.543,1.342,1.342,0,0,0-.238.795h-.583a2.244,2.244,0,0,1,.358-1.179,2.445,2.445,0,0,1,.9-.821,2.585,2.585,0,0,1,1.245-.3,2.926,2.926,0,0,1,1.338.3,2.28,2.28,0,0,1,.927.914,2.926,2.926,0,0,1,.344,1.457v2.741a.342.342,0,0,1-.119.278.289.289,0,0,1-.278.132" transform="translate(-589.114 -219.795)" fill="#48494a"/>
      <path id="Trazado_14" data-name="Trazado 14" d="M727.612,242.8a.323.323,0,0,1-.265-.106.339.339,0,0,1-.106-.252.393.393,0,0,1,.106-.265.37.37,0,0,1,.265-.106H730.3a.323.323,0,0,1,.265.106.348.348,0,0,1,.106.265.362.362,0,0,1-.106.252.37.37,0,0,1-.265.106Zm2.622,4.834a1.919,1.919,0,0,1-.993-.265,1.882,1.882,0,0,1-.689-.715,2.074,2.074,0,0,1-.252-1.046v-5.152a.436.436,0,0,1,.106-.291.411.411,0,0,1,.7.291v5.152a1.224,1.224,0,0,0,.318.874,1.06,1.06,0,0,0,.808.344h.291a.386.386,0,0,1,.384.411.357.357,0,0,1-.132.291.442.442,0,0,1-.318.106Z" transform="translate(-630.931 -208.256)" fill="#48494a"/>
      <path id="Trazado_15" data-name="Trazado 15" d="M765.138,259.346a.39.39,0,0,1-.291-.106.413.413,0,0,1-.106-.291V254a.391.391,0,0,1,.106-.291.412.412,0,0,1,.291-.106.39.39,0,0,1,.291.106.412.412,0,0,1,.106.291v4.953a.39.39,0,0,1-.106.291.345.345,0,0,1-.291.106m-.053-3.536a2.448,2.448,0,0,1,.344-1.165,2.358,2.358,0,0,1,.808-.808,2.115,2.115,0,0,1,1.112-.291,1.812,1.812,0,0,1,.742.132.334.334,0,0,1,.2.4.324.324,0,0,1-.146.212.354.354,0,0,1-.238.04,3.073,3.073,0,0,1-.318-.026,2.221,2.221,0,0,0-1.046.119,1.654,1.654,0,0,0-.728.53,1.432,1.432,0,0,0-.265.848Z" transform="translate(-663.465 -219.968)" fill="#48494a"/>
      <path id="Trazado_16" data-name="Trazado 16" d="M801.688,259.313a2.849,2.849,0,0,1-1.457-.384,2.763,2.763,0,0,1-1.02-1.046,2.953,2.953,0,0,1-.371-1.5,3.046,3.046,0,0,1,.384-1.51,2.831,2.831,0,0,1,1.046-1.046,2.96,2.96,0,0,1,1.5-.384,2.864,2.864,0,0,1,2.529,1.43,3.121,3.121,0,0,1,.4,1.51l-.331.252a2.638,2.638,0,0,1-1.311,2.318,2.5,2.5,0,0,1-1.364.358m.079-.728a2.1,2.1,0,0,0,1.086-.278,2.04,2.04,0,0,0,.755-.781,2.417,2.417,0,0,0,0-2.251,2.133,2.133,0,0,0-2.927-.781,2.172,2.172,0,0,0-.768.781,2.259,2.259,0,0,0-.291,1.126,2.163,2.163,0,0,0,.291,1.126,2.073,2.073,0,0,0,.768.781,2.138,2.138,0,0,0,1.086.278m2.516.675a.436.436,0,0,1-.291-.106.37.37,0,0,1-.119-.291v-1.8l.2-.834.622.159v2.476a.389.389,0,0,1-.119.291.38.38,0,0,1-.291.106" transform="translate(-693.049 -219.882)" fill="#48494a"/>
      <path id="Trazado_17" data-name="Trazado 17" d="M873.012,242.8a.323.323,0,0,1-.265-.106.339.339,0,0,1-.106-.252.394.394,0,0,1,.106-.265.37.37,0,0,1,.265-.106H875.7a.323.323,0,0,1,.265.106.348.348,0,0,1,.106.265.362.362,0,0,1-.106.252.369.369,0,0,1-.265.106Zm2.622,4.834a1.919,1.919,0,0,1-.993-.265,1.882,1.882,0,0,1-.689-.715,2.074,2.074,0,0,1-.252-1.046v-5.152a.436.436,0,0,1,.106-.291.411.411,0,0,1,.7.291v5.152a1.224,1.224,0,0,0,.318.874,1.06,1.06,0,0,0,.808.344h.291a.385.385,0,0,1,.384.411.357.357,0,0,1-.132.291.441.441,0,0,1-.318.106Z" transform="translate(-757.076 -208.256)" fill="#48494a"/>
      <path id="Trazado_18" data-name="Trazado 18" d="M912.05,259.673a2.926,2.926,0,0,1-1.338-.3,2.28,2.28,0,0,1-.927-.914,2.926,2.926,0,0,1-.344-1.457v-2.741a.342.342,0,0,1,.119-.278.416.416,0,0,1,.583,0,.381.381,0,0,1,.119.278V257a2.011,2.011,0,0,0,.252,1.073,1.566,1.566,0,0,0,.675.636,2.287,2.287,0,0,0,1.894.013,1.685,1.685,0,0,0,.662-.543,1.342,1.342,0,0,0,.238-.795h.583a2.512,2.512,0,0,1-.358,1.179,2.307,2.307,0,0,1-.887.821,2.838,2.838,0,0,1-1.271.291m2.3-.066a.436.436,0,0,1-.291-.106.374.374,0,0,1-.106-.3v-4.953a.436.436,0,0,1,.106-.291.362.362,0,0,1,.291-.106.436.436,0,0,1,.291.106.39.39,0,0,1,.119.291V259.2a.4.4,0,0,1-.119.3.362.362,0,0,1-.291.106" transform="translate(-789.002 -220.229)" fill="#48494a"/>
      <path id="Trazado_19" data-name="Trazado 19" d="M987.788,259.313a2.848,2.848,0,0,1-1.457-.384,2.764,2.764,0,0,1-1.02-1.046,2.953,2.953,0,0,1-.371-1.5,3.046,3.046,0,0,1,.384-1.51,2.831,2.831,0,0,1,1.046-1.046,2.96,2.96,0,0,1,1.5-.384,2.864,2.864,0,0,1,2.53,1.43,3.121,3.121,0,0,1,.4,1.51l-.331.252a2.638,2.638,0,0,1-1.311,2.318,2.5,2.5,0,0,1-1.364.358m.079-.728a2.1,2.1,0,0,0,1.086-.278,2.04,2.04,0,0,0,.755-.781,2.416,2.416,0,0,0,0-2.251,2.133,2.133,0,0,0-2.927-.781,2.172,2.172,0,0,0-.768.781,2.259,2.259,0,0,0-.291,1.126,2.163,2.163,0,0,0,.291,1.126,2.073,2.073,0,0,0,.768.781,2.173,2.173,0,0,0,1.086.278m2.516.675a.436.436,0,0,1-.291-.106.37.37,0,0,1-.119-.291v-1.8l.2-.834.622.159v2.476a.389.389,0,0,1-.119.291.379.379,0,0,1-.291.106" transform="translate(-854.504 -219.882)" fill="#48494a"/>
      <path id="Trazado_20" data-name="Trazado 20" d="M1037.948,259.45a.416.416,0,0,1-.384-.278l-2.331-4.953a.4.4,0,0,1-.013-.278.369.369,0,0,1,.212-.212.376.376,0,0,1,.291-.026.412.412,0,0,1,.212.185l2.238,4.847h-.437l2.212-4.847a.389.389,0,0,1,.212-.2.407.407,0,0,1,.3.013.439.439,0,0,1,.2.212.308.308,0,0,1-.013.265l-2.3,4.966a.412.412,0,0,1-.4.3" transform="translate(-898.108 -220.072)" fill="#48494a"/>
      <path id="Trazado_21" data-name="Trazado 21" d="M1085.655,259.4a2.969,2.969,0,0,1-1.51-.371,2.763,2.763,0,0,1-1.033-1.033,2.97,2.97,0,0,1-.371-1.51,3.156,3.156,0,0,1,.357-1.523,2.637,2.637,0,0,1,2.4-1.417,2.65,2.65,0,0,1,1.39.358,2.4,2.4,0,0,1,.914,1.007,3.232,3.232,0,0,1,.331,1.457.348.348,0,0,1-.106.265.379.379,0,0,1-.278.106h-4.476v-.675h4.556l-.45.331a2.306,2.306,0,0,0-.225-1.1,1.788,1.788,0,0,0-1.682-1.033,1.868,1.868,0,0,0-1.748,1.059,2.618,2.618,0,0,0-.252,1.139,2.3,2.3,0,0,0,.278,1.139,1.982,1.982,0,0,0,.768.781,2.168,2.168,0,0,0,1.113.278,2.288,2.288,0,0,0,.768-.132,1.954,1.954,0,0,0,.622-.331.471.471,0,0,1,.265-.106.407.407,0,0,1,.251.079.414.414,0,0,1,.146.278.326.326,0,0,1-.119.252,2.978,2.978,0,0,1-.887.49,2.705,2.705,0,0,1-1.02.212" transform="translate(-939.352 -219.968)" fill="#48494a"/>
      <path id="Trazado_22" data-name="Trazado 22" d="M1134.251,259.173a.472.472,0,0,1-.3-.106.362.362,0,0,1-.106-.291v-4.953a.447.447,0,0,1,.106-.3.374.374,0,0,1,.3-.106.436.436,0,0,1,.291.106.374.374,0,0,1,.106.3v4.953a.436.436,0,0,1-.106.291.379.379,0,0,1-.291.106m4.516,0a.389.389,0,0,1-.291-.119.381.381,0,0,1-.119-.278v-2.741a2.011,2.011,0,0,0-.252-1.073,1.644,1.644,0,0,0-.676-.636,2.287,2.287,0,0,0-1.894-.013,1.686,1.686,0,0,0-.662.543,1.342,1.342,0,0,0-.239.795h-.583a2.244,2.244,0,0,1,.357-1.179,2.345,2.345,0,0,1,.9-.821,2.585,2.585,0,0,1,1.245-.3,2.926,2.926,0,0,1,1.338.3,2.2,2.2,0,0,1,.927.914,2.927,2.927,0,0,1,.344,1.457v2.741a.342.342,0,0,1-.119.278.289.289,0,0,1-.278.132" transform="translate(-983.685 -219.795)" fill="#48494a"/>
      <path id="Trazado_23" data-name="Trazado 23" d="M1182.412,242.8a.323.323,0,0,1-.265-.106.362.362,0,0,1-.106-.252.393.393,0,0,1,.106-.265.369.369,0,0,1,.265-.106h2.688a.323.323,0,0,1,.265.106.37.37,0,0,1,.106.265.362.362,0,0,1-.106.252.37.37,0,0,1-.265.106Zm2.609,4.834a1.919,1.919,0,0,1-.993-.265,1.882,1.882,0,0,1-.689-.715,2.075,2.075,0,0,1-.252-1.046v-5.152a.437.437,0,0,1,.106-.291.411.411,0,0,1,.7.291v5.152a1.224,1.224,0,0,0,.318.874,1.06,1.06,0,0,0,.808.344h.291a.381.381,0,0,1,.278.119.437.437,0,0,1,.106.291.39.39,0,0,1-.119.291.423.423,0,0,1-.318.106Z" transform="translate(-1025.501 -208.256)" fill="#48494a"/>
      <path id="Trazado_24" data-name="Trazado 24" d="M1221.35,259.673a2.926,2.926,0,0,1-1.338-.3,2.281,2.281,0,0,1-.927-.914,2.926,2.926,0,0,1-.344-1.457v-2.741a.342.342,0,0,1,.119-.278.416.416,0,0,1,.583,0,.381.381,0,0,1,.119.278V257a2.011,2.011,0,0,0,.251,1.073,1.567,1.567,0,0,0,.675.636,2.287,2.287,0,0,0,1.894.013,1.685,1.685,0,0,0,.662-.543,1.343,1.343,0,0,0,.238-.795h.583a2.512,2.512,0,0,1-.358,1.179,2.308,2.308,0,0,1-.887.821,2.76,2.76,0,0,1-1.271.291m2.318-.066a.437.437,0,0,1-.291-.106.374.374,0,0,1-.106-.3v-4.953a.437.437,0,0,1,.106-.291.362.362,0,0,1,.291-.106.436.436,0,0,1,.291.106.389.389,0,0,1,.119.291V259.2a.4.4,0,0,1-.119.3.379.379,0,0,1-.291.106" transform="translate(-1057.341 -220.229)" fill="#48494a"/>
      <path id="Trazado_25" data-name="Trazado 25" d="M1273.738,259.346a.367.367,0,0,1-.4-.4V254a.391.391,0,0,1,.106-.291.4.4,0,0,1,.689.291v4.953a.39.39,0,0,1-.106.291.346.346,0,0,1-.292.106m-.066-3.536a2.448,2.448,0,0,1,.344-1.165,2.355,2.355,0,0,1,.808-.808,2.116,2.116,0,0,1,1.113-.291,1.811,1.811,0,0,1,.741.132.334.334,0,0,1,.2.4.324.324,0,0,1-.146.212.354.354,0,0,1-.239.04,3.066,3.066,0,0,1-.318-.026,2.221,2.221,0,0,0-1.046.119,1.655,1.655,0,0,0-.729.53,1.433,1.433,0,0,0-.265.848Z" transform="translate(-1104.71 -219.968)" fill="#48494a"/>
      <path id="Trazado_26" data-name="Trazado 26" d="M1310.188,259.313a2.849,2.849,0,0,1-1.457-.384,2.764,2.764,0,0,1-1.02-1.046,2.953,2.953,0,0,1-.371-1.5,3.045,3.045,0,0,1,.384-1.51,2.832,2.832,0,0,1,1.046-1.046,2.96,2.96,0,0,1,1.5-.384,2.864,2.864,0,0,1,2.529,1.43,3.121,3.121,0,0,1,.4,1.51l-.331.252a2.637,2.637,0,0,1-1.311,2.318,2.443,2.443,0,0,1-1.364.358m.093-.728a2.1,2.1,0,0,0,1.086-.278,2.04,2.04,0,0,0,.755-.781,2.417,2.417,0,0,0,0-2.251,2.133,2.133,0,0,0-2.927-.781,2.171,2.171,0,0,0-.768.781,2.259,2.259,0,0,0-.291,1.126,2.162,2.162,0,0,0,.291,1.126,2.072,2.072,0,0,0,.768.781,2.138,2.138,0,0,0,1.086.278m2.516.675a.436.436,0,0,1-.291-.106.37.37,0,0,1-.119-.291v-1.8l.2-.834.622.159v2.476a.389.389,0,0,1-.119.291.379.379,0,0,1-.291.106" transform="translate(-1134.208 -219.882)" fill="#48494a"/>
      <path id="Trazado_27" data-name="Trazado 27" d="M1.529,30.929c-3.748-7.906-.318-19.256,7.178-25.414a24.151,24.151,0,0,1,29.665-.821c8.171,6.118,12,17.454,8.462,25.93A11.07,11.07,0,0,1,45.112,29.1c-1.7-2.278-3.284-4.635-4.979-6.913-1.841-2.463-3.152-2.476-5.006-.132-.569.715-1.059,1.483-1.6,2.225-2.212,3.033-3.311,3.059-5.469.106-2.622-3.615-5.152-7.3-7.8-10.886-2.6-3.549-3.483-3.549-6-.053C10.812,18.216,7.409,23.023,3.979,27.8c-.689.954-1.444,1.854-2.45,3.125" transform="translate(0 0)" fill="#7ece00"/>
      <path id="Trazado_28" data-name="Trazado 28" d="M62.172,258.667a5.214,5.214,0,0,1-3.006.344c-1.152-.291-1.973-1.152-3.231-1.165-2.49-.013-4.542,1.934-6.886,2.556a10.58,10.58,0,0,1-7.006-.728,24.493,24.493,0,0,0-3.536-1.391,14.724,14.724,0,0,0-3.88-.358,30.724,30.724,0,0,0-6.6.768c-.159.04-.331.093-.49.132a23.5,23.5,0,0,0,40.5.583c-.9-.291-1.761-.662-2.649-1.007a4.52,4.52,0,0,0-3.218.265" transform="translate(-23.894 -223.699)" fill="#007793"/>
    </g>
  </g>
</svg>
