<svg id="Grupo_550" data-name="Grupo 550" xmlns="http://www.w3.org/2000/svg" xmlns:xlink="http://www.w3.org/1999/xlink" width="11.559" height="15" viewBox="0 0 11.559 15">
  <defs>
    <clipPath id="clip-path">
      <rect id="Rectángulo_455" data-name="Rectángulo 455" width="11.559" height="15" fill="#48494a"/>
    </clipPath>
  </defs>
  <g id="Grupo_549" data-name="Grupo 549" clip-path="url(#clip-path)">
    <path id="Trazado_58" data-name="Trazado 58" d="M5.778,51.745c-1.369,0-2.737,0-4.106,0A1.632,1.632,0,0,1,.024,50.376,2.1,2.1,0,0,1,0,50q0-3.5,0-6.993a1.647,1.647,0,0,1,1.756-1.748c.447,0,.893,0,1.34,0a.551.551,0,1,1,0,1.1c-.47,0-.939,0-1.409,0a.545.545,0,0,0-.592.586q0,3.556,0,7.113a.54.54,0,0,0,.59.587q4.088,0,8.177,0a.54.54,0,0,0,.59-.587q0-3.557,0-7.113a.542.542,0,0,0-.592-.586c-.464,0-.928,0-1.391,0a.554.554,0,0,1-.609-.553.548.548,0,0,1,.613-.546c.464,0,.928,0,1.391,0a1.634,1.634,0,0,1,1.686,1.679q.008,3.565,0,7.13a1.628,1.628,0,0,1-1.688,1.676c-1.363.005-2.725,0-4.088,0" transform="translate(0 -36.747)" fill="#48494a"/>
    <path id="Trazado_59" data-name="Trazado 59" d="M29.069,1.977v.2c0,2.273,0,4.5,0,6.777a1.787,1.787,0,0,1-.01.24.545.545,0,0,1-1.083-.022c-.007-.074-.006-.149-.006-.223,0-2.273,0-4.477,0-6.75V1.869l-.17.174s-.886.9-1.335,1.336a.547.547,0,0,1-.938-.235.52.52,0,0,1,.143-.521Q26.9,1.395,28.126.171a.533.533,0,0,1,.785,0q1.232,1.221,2.452,2.453a.539.539,0,0,1,0,.772.547.547,0,0,1-.785-.006c-.449-.442-1.336-1.336-1.336-1.336l-.175-.178Z" transform="translate(-22.722 0.001)" fill="#48494a"/>
  </g>
</svg>
